<svg xmlns="http://www.w3.org/2000/svg" xmlns:xlink="http://www.w3.org/1999/xlink" width="1128" height="966" contentScriptType="application/ecmascript" contentStyleType="text/css" style="width:1128px;height:966px" preserveAspectRatio="none" version="1.1" viewBox="0 0 1128 966" zoomAndPan="magnify"><defs><filter id="f1kuzinzv08wkq" width="300%" height="300%" x="-1" y="-1"><feGaussianBlur result="blurOut" stdDeviation="2"/><feColorMatrix in="blurOut" result="blurOut2" type="matrix" values="0 0 0 0 0 0 0 0 0 0 0 0 0 0 0 0 0 0 .4 0"/><feOffset dx="4" dy="4" in="blurOut2" result="blurOut3"/><feBlend in="SourceGraphic" in2="blurOut3" mode="normal"/></filter></defs><g><rect style="stroke:#a80036;stroke-width:1" width="10" height="570.984" x="765" y="336.82" fill="#FFF" filter="url(#f1kuzinzv08wkq)"/><rect style="stroke:#a80036;stroke-width:1" width="10" height="89.563" x="1030.5" y="665.578" fill="#FFF" filter="url(#f1kuzinzv08wkq)"/><rect style="stroke:#000;stroke-width:2" width="419.5" height="133.664" x="13" y="55.297" fill="#FFF" filter="url(#f1kuzinzv08wkq)"/><rect style="stroke:#a80036;stroke-width:1.5" width="67" height="30.297" x="601.5" y="225.094" fill="#FEFECE" filter="url(#f1kuzinzv08wkq)"/><text x="608.5" y="245.089" fill="#000" font-family="sans-serif" font-size="14" lengthAdjust="spacingAndGlyphs" textLength="53">runtime</text><rect style="stroke:#a80036;stroke-width:1.5" width="90" height="30.297" x="723" y="270.391" fill="#FEFECE" filter="url(#f1kuzinzv08wkq)"/><text x="730" y="290.386" fill="#000" font-family="sans-serif" font-size="14" lengthAdjust="spacingAndGlyphs" textLength="76">Firecracker</text><rect style="stroke:#a80036;stroke-width:1.5" width="54" height="30.297" x="827" y="344.82" fill="#FEFECE" filter="url(#f1kuzinzv08wkq)"/><text x="834" y="364.815" fill="#000" font-family="sans-serif" font-size="14" lengthAdjust="spacingAndGlyphs" textLength="40">agent</text><rect style="stroke:#000;stroke-width:2" width="1104" height="424.289" x="13" y="426.25" fill="#FFF" filter="url(#f1kuzinzv08wkq)"/><rect style="stroke:#a80036;stroke-width:1.5" width="139" height="30.297" x="964" y="634.445" fill="#FEFECE" filter="url(#f1kuzinzv08wkq)"/><text x="971" y="654.44" fill="#000" font-family="sans-serif" font-size="14" lengthAdjust="spacingAndGlyphs" textLength="125">container process</text><line style="stroke:#a80036;stroke-width:1;stroke-dasharray:5,5" x1="74" x2="74" y1="38.297" y2="925.805"/><line style="stroke:#a80036;stroke-width:1;stroke-dasharray:5,5" x1="234.5" x2="234.5" y1="38.297" y2="925.805"/><line style="stroke:#a80036;stroke-width:1;stroke-dasharray:5,5" x1="371.5" x2="371.5" y1="38.297" y2="925.805"/><line style="stroke:#a80036;stroke-width:1;stroke-dasharray:5,5" x1="488.5" x2="488.5" y1="38.297" y2="925.805"/><line style="stroke:#a80036;stroke-width:1;stroke-dasharray:5,5" x1="636.5" x2="636.5" y1="257.742" y2="925.805"/><line style="stroke:#a80036;stroke-width:1;stroke-dasharray:5,5" x1="770" x2="770" y1="303.039" y2="925.805"/><line style="stroke:#a80036;stroke-width:1;stroke-dasharray:5,5" x1="856" x2="856" y1="377.469" y2="925.805"/><line style="stroke:#a80036;stroke-width:1;stroke-dasharray:5,5" x1="1035" x2="1035" y1="667.094" y2="925.805"/><rect style="stroke:#a80036;stroke-width:1.5" width="99" height="30.297" x="23" y="3" fill="#FEFECE" filter="url(#f1kuzinzv08wkq)"/><text x="30" y="22.995" fill="#000" font-family="sans-serif" font-size="14" lengthAdjust="spacingAndGlyphs" textLength="85">orchestrator</text><rect style="stroke:#a80036;stroke-width:1.5" width="99" height="30.297" x="23" y="924.805" fill="#FEFECE" filter="url(#f1kuzinzv08wkq)"/><text x="30" y="944.8" fill="#000" font-family="sans-serif" font-size="14" lengthAdjust="spacingAndGlyphs" textLength="85">orchestrator</text><rect style="stroke:#a80036;stroke-width:1.5" width="88" height="30.297" x="188.5" y="3" fill="#FEFECE" filter="url(#f1kuzinzv08wkq)"/><text x="195.5" y="22.995" fill="#000" font-family="sans-serif" font-size="14" lengthAdjust="spacingAndGlyphs" textLength="74">containerd</text><rect style="stroke:#a80036;stroke-width:1.5" width="88" height="30.297" x="188.5" y="924.805" fill="#FEFECE" filter="url(#f1kuzinzv08wkq)"/><text x="195.5" y="944.8" fill="#000" font-family="sans-serif" font-size="14" lengthAdjust="spacingAndGlyphs" textLength="74">containerd</text><rect style="stroke:#a80036;stroke-width:1.5" width="98" height="30.297" x="320.5" y="3" fill="#FEFECE" filter="url(#f1kuzinzv08wkq)"/><text x="327.5" y="22.995" fill="#000" font-family="sans-serif" font-size="14" lengthAdjust="spacingAndGlyphs" textLength="84">snapshotter</text><rect style="stroke:#a80036;stroke-width:1.5" width="98" height="30.297" x="320.5" y="924.805" fill="#FEFECE" filter="url(#f1kuzinzv08wkq)"/><text x="327.5" y="944.8" fill="#000" font-family="sans-serif" font-size="14" lengthAdjust="spacingAndGlyphs" textLength="84">snapshotter</text><rect style="stroke:#a80036;stroke-width:1.5" width="108" height="30.297" x="432.5" y="3" fill="#FEFECE" filter="url(#f1kuzinzv08wkq)"/><text x="439.5" y="22.995" fill="#000" font-family="sans-serif" font-size="14" lengthAdjust="spacingAndGlyphs" textLength="94">control plugin</text><rect style="stroke:#a80036;stroke-width:1.5" width="108" height="30.297" x="432.5" y="924.805" fill="#FEFECE" filter="url(#f1kuzinzv08wkq)"/><text x="439.5" y="944.8" fill="#000" font-family="sans-serif" font-size="14" lengthAdjust="spacingAndGlyphs" textLength="94">control plugin</text><rect style="stroke:#a80036;stroke-width:1.5" width="67" height="30.297" x="601.5" y="924.805" fill="#FEFECE" filter="url(#f1kuzinzv08wkq)"/><text x="608.5" y="944.8" fill="#000" font-family="sans-serif" font-size="14" lengthAdjust="spacingAndGlyphs" textLength="53">runtime</text><rect style="stroke:#a80036;stroke-width:1.5" width="90" height="30.297" x="723" y="924.805" fill="#FEFECE" filter="url(#f1kuzinzv08wkq)"/><text x="730" y="944.8" fill="#000" font-family="sans-serif" font-size="14" lengthAdjust="spacingAndGlyphs" textLength="76">Firecracker</text><rect style="stroke:#a80036;stroke-width:1.5" width="54" height="30.297" x="827" y="924.805" fill="#FEFECE" filter="url(#f1kuzinzv08wkq)"/><text x="834" y="944.8" fill="#000" font-family="sans-serif" font-size="14" lengthAdjust="spacingAndGlyphs" textLength="40">agent</text><rect style="stroke:#a80036;stroke-width:1.5" width="139" height="30.297" x="964" y="924.805" fill="#FEFECE" filter="url(#f1kuzinzv08wkq)"/><text x="971" y="944.8" fill="#000" font-family="sans-serif" font-size="14" lengthAdjust="spacingAndGlyphs" textLength="125">container process</text><rect style="stroke:#a80036;stroke-width:1" width="10" height="570.984" x="765" y="336.82" fill="#FFF" filter="url(#f1kuzinzv08wkq)"/><rect style="stroke:#a80036;stroke-width:1" width="10" height="89.563" x="1030.5" y="665.578" fill="#FFF" filter="url(#f1kuzinzv08wkq)"/><path fill="#EEE" d="M13,55.2969 L90,55.2969 L90,62.2969 L80,72.2969 L13,72.2969 L13,55.2969" style="stroke:#000;stroke-width:1"/><rect style="stroke:#000;stroke-width:2" width="419.5" height="133.664" x="13" y="55.297" fill="none"/><text x="28" y="68.364" fill="#000" font-family="sans-serif" font-size="13" font-weight="bold" lengthAdjust="spacingAndGlyphs" textLength="32">loop</text><text x="105" y="67.507" fill="#000" font-family="sans-serif" font-size="11" font-weight="bold" lengthAdjust="spacingAndGlyphs" textLength="140">[&quot;for each container&quot;]</text><polygon fill="#A80036" points="222.5 89.563 232.5 93.563 222.5 97.563 226.5 93.563" style="stroke:#a80036;stroke-width:1"/><line style="stroke:#a80036;stroke-width:1" x1="74.5" x2="228.5" y1="93.563" y2="93.563"/><text x="81.5" y="88.497" fill="#000" font-family="sans-serif" font-size="13" lengthAdjust="spacingAndGlyphs" textLength="113">prepare snapshot</text><polygon fill="#A80036" points="359.5 118.695 369.5 122.695 359.5 126.695 363.5 122.695" style="stroke:#a80036;stroke-width:1"/><line style="stroke:#a80036;stroke-width:1" x1="234.5" x2="365.5" y1="122.695" y2="122.695"/><text x="241.5" y="117.629" fill="#000" font-family="sans-serif" font-size="13" lengthAdjust="spacingAndGlyphs" textLength="113">prepare snapshot</text><polygon fill="#A80036" points="245.5 147.828 235.5 151.828 245.5 155.828 241.5 151.828" style="stroke:#a80036;stroke-width:1"/><line style="stroke:#a80036;stroke-width:1;stroke-dasharray:2,2" x1="239.5" x2="370.5" y1="151.828" y2="151.828"/><text x="251.5" y="146.762" fill="#000" font-family="sans-serif" font-size="13" lengthAdjust="spacingAndGlyphs" textLength="91">snapshot $foo</text><polygon fill="#A80036" points="85.5 176.961 75.5 180.961 85.5 184.961 81.5 180.961" style="stroke:#a80036;stroke-width:1"/><line style="stroke:#a80036;stroke-width:1;stroke-dasharray:2,2" x1="79.5" x2="233.5" y1="180.961" y2="180.961"/><text x="91.5" y="175.895" fill="#000" font-family="sans-serif" font-size="13" lengthAdjust="spacingAndGlyphs" textLength="91">snapshot $foo</text><polygon fill="#A80036" points="476.5 213.094 486.5 217.094 476.5 221.094 480.5 217.094" style="stroke:#a80036;stroke-width:1"/><line style="stroke:#a80036;stroke-width:1" x1="74.5" x2="482.5" y1="217.094" y2="217.094"/><text x="81.5" y="212.028" fill="#000" font-family="sans-serif" font-size="13" lengthAdjust="spacingAndGlyphs" textLength="88">create VM $id</text><polygon fill="#A80036" points="589.5 242.227 599.5 246.227 589.5 250.227 593.5 246.227" style="stroke:#a80036;stroke-width:1"/><line style="stroke:#a80036;stroke-width:1" x1="488.5" x2="595.5" y1="246.227" y2="246.227"/><text x="495.5" y="241.161" fill="#000" font-family="sans-serif" font-size="13" lengthAdjust="spacingAndGlyphs" textLength="89">launch VM $id</text><rect style="stroke:#a80036;stroke-width:1.5" width="67" height="30.297" x="601.5" y="225.094" fill="#FEFECE" filter="url(#f1kuzinzv08wkq)"/><text x="608.5" y="245.089" fill="#000" font-family="sans-serif" font-size="14" lengthAdjust="spacingAndGlyphs" textLength="53">runtime</text><polygon fill="#A80036" points="711 287.523 721 291.523 711 295.523 715 291.523" style="stroke:#a80036;stroke-width:1"/><line style="stroke:#a80036;stroke-width:1" x1="637" x2="717" y1="291.523" y2="291.523"/><text x="644" y="286.457" fill="#000" font-family="sans-serif" font-size="13" lengthAdjust="spacingAndGlyphs" textLength="42">launch</text><rect style="stroke:#a80036;stroke-width:1.5" width="90" height="30.297" x="723" y="270.391" fill="#FEFECE" filter="url(#f1kuzinzv08wkq)"/><text x="730" y="290.386" fill="#000" font-family="sans-serif" font-size="14" lengthAdjust="spacingAndGlyphs" textLength="76">Firecracker</text><polygon fill="#A80036" points="753 332.82 763 336.82 753 340.82 757 336.82" style="stroke:#a80036;stroke-width:1"/><line style="stroke:#a80036;stroke-width:1" x1="637" x2="759" y1="336.82" y2="336.82"/><text x="644" y="331.754" fill="#000" font-family="sans-serif" font-size="13" lengthAdjust="spacingAndGlyphs" textLength="107">configure &amp; boot</text><polygon fill="#A80036" points="648 361.953 638 365.953 648 369.953 644 365.953" style="stroke:#a80036;stroke-width:1"/><polygon fill="#A80036" points="815 361.953 825 365.953 815 369.953 819 365.953" style="stroke:#a80036;stroke-width:1"/><line style="stroke:#a80036;stroke-width:1" x1="642" x2="821" y1="365.953" y2="365.953"/><text x="654" y="360.887" fill="#000" font-family="sans-serif" font-size="13" lengthAdjust="spacingAndGlyphs" textLength="51">connect</text><rect style="stroke:#a80036;stroke-width:1.5" width="54" height="30.297" x="827" y="344.82" fill="#FEFECE" filter="url(#f1kuzinzv08wkq)"/><text x="834" y="364.815" fill="#000" font-family="sans-serif" font-size="14" lengthAdjust="spacingAndGlyphs" textLength="40">agent</text><polygon fill="#A80036" points="85.5 407.25 75.5 411.25 85.5 415.25 81.5 411.25" style="stroke:#a80036;stroke-width:1"/><line style="stroke:#a80036;stroke-width:1;stroke-dasharray:2,2" x1="79.5" x2="487.5" y1="411.25" y2="411.25"/><text x="91.5" y="406.184" fill="#000" font-family="sans-serif" font-size="13" lengthAdjust="spacingAndGlyphs" textLength="95">VM $id running</text><path fill="#EEE" d="M13,426.25 L90,426.25 L90,433.25 L80,443.25 L13,443.25 L13,426.25" style="stroke:#000;stroke-width:1"/><rect style="stroke:#000;stroke-width:2" width="1104" height="424.289" x="13" y="426.25" fill="none"/><text x="28" y="439.317" fill="#000" font-family="sans-serif" font-size="13" font-weight="bold" lengthAdjust="spacingAndGlyphs" textLength="32">loop</text><text x="105" y="438.46" fill="#000" font-family="sans-serif" font-size="11" font-weight="bold" lengthAdjust="spacingAndGlyphs" textLength="140">[&quot;for each container&quot;]</text><polygon fill="#A80036" points="222.5 490.781 232.5 494.781 222.5 498.781 226.5 494.781" style="stroke:#a80036;stroke-width:1"/><line style="stroke:#a80036;stroke-width:1" x1="74.5" x2="228.5" y1="494.781" y2="494.781"/><text x="81.5" y="459.45" fill="#000" font-family="sans-serif" font-size="13" lengthAdjust="spacingAndGlyphs" textLength="85">run container</text><text x="81.5" y="474.582" fill="#000" font-family="sans-serif" font-size="13" lengthAdjust="spacingAndGlyphs" textLength="58">$bar with</text><text x="81.5" y="489.715" fill="#000" font-family="sans-serif" font-size="13" lengthAdjust="spacingAndGlyphs" textLength="91">snapshot $foo</text><polygon fill="#A80036" points="625 519.914 635 523.914 625 527.914 629 523.914" style="stroke:#a80036;stroke-width:1"/><line style="stroke:#a80036;stroke-width:1" x1="234.5" x2="631" y1="523.914" y2="523.914"/><text x="241.5" y="518.848" fill="#000" font-family="sans-serif" font-size="13" lengthAdjust="spacingAndGlyphs" textLength="242">run container $bar with snapshot $foo</text><polygon fill="#A80036" points="753 564.18 763 568.18 753 572.18 757 568.18" style="stroke:#a80036;stroke-width:1"/><line style="stroke:#a80036;stroke-width:1" x1="637" x2="759" y1="568.18" y2="568.18"/><text x="644" y="547.981" fill="#000" font-family="sans-serif" font-size="13" lengthAdjust="spacingAndGlyphs" textLength="104">attach snapshot</text><text x="644" y="563.114" fill="#000" font-family="sans-serif" font-size="13" lengthAdjust="spacingAndGlyphs" textLength="92">$foo as device</text><polygon fill="#A80036" points="844 593.313 854 597.313 844 601.313 848 597.313" style="stroke:#a80036;stroke-width:1"/><line style="stroke:#a80036;stroke-width:1" x1="637" x2="850" y1="597.313" y2="597.313"/><text x="644" y="592.247" fill="#000" font-family="sans-serif" font-size="13" lengthAdjust="spacingAndGlyphs" textLength="137">mount snapshot $foo</text><polygon fill="#A80036" points="844 622.445 854 626.445 844 630.445 848 626.445" style="stroke:#a80036;stroke-width:1"/><line style="stroke:#a80036;stroke-width:1" x1="637" x2="850" y1="626.445" y2="626.445"/><text x="644" y="621.379" fill="#000" font-family="sans-serif" font-size="13" lengthAdjust="spacingAndGlyphs" textLength="118">run container $bar</text><polygon fill="#A80036" points="952 651.578 962 655.578 952 659.578 956 655.578" style="stroke:#a80036;stroke-width:1"/><line style="stroke:#a80036;stroke-width:1" x1="856" x2="958" y1="655.578" y2="655.578"/><text x="863" y="650.512" fill="#000" font-family="sans-serif" font-size="13" lengthAdjust="spacingAndGlyphs" textLength="84">start process</text><rect style="stroke:#a80036;stroke-width:1.5" width="139" height="30.297" x="964" y="634.445" fill="#FEFECE" filter="url(#f1kuzinzv08wkq)"/><text x="971" y="654.44" fill="#000" font-family="sans-serif" font-size="14" lengthAdjust="spacingAndGlyphs" textLength="125">container process</text><path fill="#FBFB77" d="M903,684.7422 L903,739.7422 L1021,739.7422 L1021,694.7422 L1011,684.7422 L903,684.7422" filter="url(#f1kuzinzv08wkq)" style="stroke:#a80036;stroke-width:1"/><path fill="#FBFB77" d="M1011,684.7422 L1011,694.7422 L1021,694.7422 L1011,684.7422" style="stroke:#a80036;stroke-width:1"/><text x="909" y="701.809" fill="#000" font-family="sans-serif" font-size="13" lengthAdjust="spacingAndGlyphs" textLength="71">After some</text><text x="909" y="716.942" fill="#000" font-family="sans-serif" font-size="13" lengthAdjust="spacingAndGlyphs" textLength="97">time, container</text><text x="909" y="732.075" fill="#000" font-family="sans-serif" font-size="13" lengthAdjust="spacingAndGlyphs" textLength="84">process exits</text><polygon fill="#A80036" points="867 751.141 857 755.141 867 759.141 863 755.141" style="stroke:#a80036;stroke-width:1"/><line style="stroke:#a80036;stroke-width:1;stroke-dasharray:2,2" x1="861" x2="1034.5" y1="755.141" y2="755.141"/><polygon fill="#A80036" points="648 780.273 638 784.273 648 788.273 644 784.273" style="stroke:#a80036;stroke-width:1"/><line style="stroke:#a80036;stroke-width:1" x1="642" x2="855" y1="784.273" y2="784.273"/><text x="654" y="779.207" fill="#000" font-family="sans-serif" font-size="13" lengthAdjust="spacingAndGlyphs" textLength="136">container $bar exited</text><polygon fill="#A80036" points="245.5 809.406 235.5 813.406 245.5 817.406 241.5 813.406" style="stroke:#a80036;stroke-width:1"/><line style="stroke:#a80036;stroke-width:1" x1="239.5" x2="636" y1="813.406" y2="813.406"/><text x="251.5" y="808.34" fill="#000" font-family="sans-serif" font-size="13" lengthAdjust="spacingAndGlyphs" textLength="136">container $bar exited</text><polygon fill="#A80036" points="85.5 838.539 75.5 842.539 85.5 846.539 81.5 842.539" style="stroke:#a80036;stroke-width:1"/><line style="stroke:#a80036;stroke-width:1" x1="79.5" x2="233.5" y1="842.539" y2="842.539"/><text x="91.5" y="837.473" fill="#000" font-family="sans-serif" font-size="13" lengthAdjust="spacingAndGlyphs" textLength="136">container $bar exited</text><polygon fill="#A80036" points="476.5 874.672 486.5 878.672 476.5 882.672 480.5 878.672" style="stroke:#a80036;stroke-width:1"/><line style="stroke:#a80036;stroke-width:1" x1="74.5" x2="482.5" y1="878.672" y2="878.672"/><text x="81.5" y="873.606" fill="#000" font-family="sans-serif" font-size="13" lengthAdjust="spacingAndGlyphs" textLength="75">stop VM $id</text><polygon fill="#A80036" points="758 903.805 768 907.805 758 911.805 762 907.805" style="stroke:#a80036;stroke-width:1"/><line style="stroke:#a80036;stroke-width:1" x1="488.5" x2="764" y1="907.805" y2="907.805"/><text x="495.5" y="902.739" fill="#000" font-family="sans-serif" font-size="13" lengthAdjust="spacingAndGlyphs" textLength="28">stop</text></g></svg>